<mxfile host="Electron" agent="Mozilla/5.0 (Windows NT 10.0; Win64; x64) AppleWebKit/537.36 (KHTML, like Gecko) draw.io/26.2.15 Chrome/134.0.6998.205 Electron/35.2.1 Safari/537.36" version="26.2.15">
  <diagram name="Page-1" id="BqR1G5EnXAGTYK2YqZA1">
    <mxGraphModel dx="872" dy="1706" grid="0" gridSize="10" guides="1" tooltips="1" connect="1" arrows="1" fold="1" page="1" pageScale="1" pageWidth="827" pageHeight="1169" background="none" math="0" shadow="0" adaptiveColors="simple">
      <root>
        <mxCell id="0" />
        <mxCell id="1" parent="0" />
        <mxCell id="K9HX2_NeKCllVYPnepKJ-13" value="Agency" style="swimlane;childLayout=stackLayout;horizontal=1;startSize=30;horizontalStack=0;rounded=1;fontSize=14;fontStyle=0;strokeWidth=2;resizeParent=0;resizeLast=1;shadow=0;dashed=0;align=center;arcSize=4;whiteSpace=wrap;html=1;fillColor=#eeeeee;strokeColor=#808080;" parent="1" vertex="1">
          <mxGeometry x="256" y="-199" width="131" height="136" as="geometry" />
        </mxCell>
        <mxCell id="K9HX2_NeKCllVYPnepKJ-14" value="&lt;div style=&quot;line-height: 160%;&quot;&gt;&lt;font style=&quot;font-size: 11px;&quot;&gt;AgencyID (PK)&lt;/font&gt;&lt;div&gt;&lt;font style=&quot;font-size: 11px;&quot;&gt;AgencyName&lt;/font&gt;&lt;/div&gt;&lt;div&gt;&lt;font style=&quot;font-size: 11px;&quot;&gt;Address&lt;/font&gt;&lt;/div&gt;&lt;div&gt;&lt;font style=&quot;font-size: 11px;&quot;&gt;Phone&lt;/font&gt;&lt;/div&gt;&lt;div&gt;&lt;font style=&quot;font-size: 11px;&quot;&gt;Email&lt;/font&gt;&lt;/div&gt;&lt;/div&gt;" style="align=left;strokeColor=none;fillColor=none;spacingLeft=4;spacingRight=4;fontSize=12;verticalAlign=top;resizable=0;rotatable=0;part=1;html=1;whiteSpace=wrap;" parent="K9HX2_NeKCllVYPnepKJ-13" vertex="1">
          <mxGeometry y="30" width="131" height="106" as="geometry" />
        </mxCell>
        <mxCell id="K9HX2_NeKCllVYPnepKJ-19" value="&lt;font face=&quot;Comic Sans MS&quot; style=&quot;font-size: 15px;&quot;&gt;Agent&lt;/font&gt;" style="swimlane;childLayout=stackLayout;horizontal=1;startSize=30;horizontalStack=0;rounded=1;fontSize=14;fontStyle=0;strokeWidth=2;resizeParent=0;resizeLast=1;shadow=0;dashed=0;align=center;arcSize=4;whiteSpace=wrap;html=1;fillColor=#eeeeee;strokeColor=#808080;" parent="1" vertex="1">
          <mxGeometry x="27" y="84" width="151" height="159" as="geometry" />
        </mxCell>
        <mxCell id="K9HX2_NeKCllVYPnepKJ-20" value="&lt;div style=&quot;line-height: 160%;&quot;&gt;&lt;font&gt;AgentID (PK)&lt;/font&gt;&lt;div&gt;&lt;font&gt;FirstName&lt;/font&gt;&lt;/div&gt;&lt;div&gt;&lt;font&gt;LastName&lt;/font&gt;&lt;/div&gt;&lt;div&gt;&lt;font&gt;Phone&lt;/font&gt;&lt;/div&gt;&lt;div&gt;&lt;font&gt;Email&lt;/font&gt;&lt;/div&gt;&lt;div&gt;&lt;font&gt;AgencyID (FK)&lt;/font&gt;&lt;/div&gt;&lt;/div&gt;" style="align=left;strokeColor=none;fillColor=none;spacingLeft=4;spacingRight=4;fontSize=12;verticalAlign=top;resizable=0;rotatable=0;part=1;html=1;whiteSpace=wrap;" parent="K9HX2_NeKCllVYPnepKJ-19" vertex="1">
          <mxGeometry y="30" width="151" height="129" as="geometry" />
        </mxCell>
        <mxCell id="K9HX2_NeKCllVYPnepKJ-21" value="&lt;font face=&quot;Comic Sans MS&quot; style=&quot;font-size: 15px;&quot;&gt;Owner&lt;/font&gt;" style="swimlane;childLayout=stackLayout;horizontal=1;startSize=30;horizontalStack=0;rounded=1;fontSize=14;fontStyle=0;strokeWidth=2;resizeParent=0;resizeLast=1;shadow=0;dashed=0;align=center;arcSize=4;whiteSpace=wrap;html=1;fillColor=#eeeeee;strokeColor=#808080;" parent="1" vertex="1">
          <mxGeometry x="814" y="23" width="131" height="139" as="geometry" />
        </mxCell>
        <mxCell id="K9HX2_NeKCllVYPnepKJ-22" value="&lt;div style=&quot;line-height: 160%;&quot;&gt;&lt;font&gt;AgencyID (PK)&lt;/font&gt;&lt;div&gt;&lt;font&gt;FirstName&lt;/font&gt;&lt;/div&gt;&lt;div&gt;&lt;font&gt;LastName&lt;/font&gt;&lt;/div&gt;&lt;div&gt;&lt;font&gt;Phone&lt;/font&gt;&lt;/div&gt;&lt;div&gt;&lt;font&gt;Email&lt;/font&gt;&lt;/div&gt;&lt;/div&gt;" style="align=left;strokeColor=none;fillColor=none;spacingLeft=4;spacingRight=4;fontSize=12;verticalAlign=top;resizable=0;rotatable=0;part=1;html=1;whiteSpace=wrap;" parent="K9HX2_NeKCllVYPnepKJ-21" vertex="1">
          <mxGeometry y="30" width="131" height="109" as="geometry" />
        </mxCell>
        <mxCell id="K9HX2_NeKCllVYPnepKJ-25" value="&lt;font style=&quot;font-size: 15px;&quot; face=&quot;Comic Sans MS&quot;&gt;Transaction&lt;/font&gt;" style="swimlane;childLayout=stackLayout;horizontal=1;startSize=30;horizontalStack=0;rounded=1;fontSize=14;fontStyle=0;strokeWidth=2;resizeParent=0;resizeLast=1;shadow=0;dashed=0;align=center;arcSize=4;whiteSpace=wrap;html=1;fillColor=#eeeeee;strokeColor=#808080;" parent="1" vertex="1">
          <mxGeometry x="679" y="468" width="148" height="157" as="geometry" />
        </mxCell>
        <mxCell id="K9HX2_NeKCllVYPnepKJ-26" value="&lt;div style=&quot;line-height: 160%;&quot;&gt;&lt;font&gt;TransactionID (PK)&lt;/font&gt;&lt;div&gt;&lt;font&gt;TransactionDate&lt;/font&gt;&lt;/div&gt;&lt;div&gt;&lt;font&gt;SalePrice&lt;/font&gt;&lt;/div&gt;&lt;div&gt;&lt;font&gt;PropertyID (FK)&lt;/font&gt;&lt;/div&gt;&lt;div&gt;&lt;font&gt;ClentID (FK)&lt;/font&gt;&lt;/div&gt;&lt;div&gt;&lt;font&gt;AgentID (FK)&lt;/font&gt;&lt;/div&gt;&lt;div&gt;&lt;br&gt;&lt;/div&gt;&lt;/div&gt;" style="align=left;strokeColor=none;fillColor=none;spacingLeft=4;spacingRight=4;fontSize=12;verticalAlign=top;resizable=0;rotatable=0;part=1;html=1;whiteSpace=wrap;" parent="K9HX2_NeKCllVYPnepKJ-25" vertex="1">
          <mxGeometry y="30" width="148" height="127" as="geometry" />
        </mxCell>
        <mxCell id="K9HX2_NeKCllVYPnepKJ-28" value="&lt;font face=&quot;Comic Sans MS&quot; style=&quot;font-size: 15px;&quot;&gt;Viewing&lt;/font&gt;" style="swimlane;childLayout=stackLayout;horizontal=1;startSize=30;horizontalStack=0;rounded=1;fontSize=14;fontStyle=0;strokeWidth=2;resizeParent=0;resizeLast=1;shadow=0;dashed=0;align=center;arcSize=4;whiteSpace=wrap;html=1;fillColor=#eeeeee;strokeColor=#808080;" parent="1" vertex="1">
          <mxGeometry x="151" y="333" width="148" height="155" as="geometry" />
        </mxCell>
        <mxCell id="K9HX2_NeKCllVYPnepKJ-29" value="&lt;div style=&quot;line-height: 160%;&quot;&gt;&lt;font&gt;ViewingID (PK)&lt;/font&gt;&lt;div&gt;&lt;font&gt;ViewingDate&lt;/font&gt;&lt;/div&gt;&lt;div&gt;&lt;font&gt;Notes&lt;/font&gt;&lt;/div&gt;&lt;div&gt;&lt;font&gt;PropertyID (FK)&lt;/font&gt;&lt;/div&gt;&lt;div&gt;&lt;font&gt;ClentID (FK)&lt;/font&gt;&lt;/div&gt;&lt;div&gt;&lt;font&gt;AgentID (FK)&lt;/font&gt;&lt;/div&gt;&lt;div&gt;&lt;br&gt;&lt;/div&gt;&lt;/div&gt;" style="align=left;strokeColor=none;fillColor=none;spacingLeft=4;spacingRight=4;fontSize=12;verticalAlign=top;resizable=0;rotatable=0;part=1;html=1;whiteSpace=wrap;" parent="K9HX2_NeKCllVYPnepKJ-28" vertex="1">
          <mxGeometry y="30" width="148" height="125" as="geometry" />
        </mxCell>
        <mxCell id="K9HX2_NeKCllVYPnepKJ-30" value="&lt;font face=&quot;Comic Sans MS&quot; style=&quot;font-size: 15px;&quot;&gt;Property&lt;/font&gt;" style="swimlane;childLayout=stackLayout;horizontal=1;startSize=30;horizontalStack=0;rounded=1;fontSize=14;fontStyle=0;strokeWidth=2;resizeParent=0;resizeLast=1;shadow=0;dashed=0;align=center;arcSize=4;whiteSpace=wrap;html=1;fillColor=#eeeeee;strokeColor=#808080;" parent="1" vertex="1">
          <mxGeometry x="456" y="-44" width="172" height="232" as="geometry" />
        </mxCell>
        <mxCell id="K9HX2_NeKCllVYPnepKJ-31" value="&lt;div style=&quot;line-height: 160%;&quot;&gt;&lt;div&gt;&lt;font&gt;PropertyID (PK)&lt;br&gt;&lt;/font&gt;&lt;/div&gt;&lt;div&gt;&lt;font&gt;PropertyType&lt;/font&gt;&lt;/div&gt;&lt;div&gt;&lt;font&gt;Address&lt;/font&gt;&lt;/div&gt;&lt;div&gt;&lt;font&gt;City&lt;/font&gt;&lt;/div&gt;&lt;div&gt;&lt;font&gt;State&lt;/font&gt;&lt;/div&gt;&lt;div&gt;&lt;font&gt;Zipcode&lt;/font&gt;&lt;/div&gt;&lt;div&gt;&lt;font&gt;Price&lt;/font&gt;&lt;/div&gt;&lt;div&gt;&lt;font&gt;Status&lt;/font&gt;&lt;/div&gt;&lt;div&gt;&lt;font&gt;OwnerID (FK)&lt;/font&gt;&lt;/div&gt;&lt;div&gt;&lt;font&gt;AgentID (FK)&lt;/font&gt;&lt;/div&gt;&lt;/div&gt;" style="align=left;strokeColor=none;fillColor=none;spacingLeft=4;spacingRight=4;fontSize=12;verticalAlign=top;resizable=0;rotatable=0;part=1;html=1;whiteSpace=wrap;" parent="K9HX2_NeKCllVYPnepKJ-30" vertex="1">
          <mxGeometry y="30" width="172" height="202" as="geometry" />
        </mxCell>
        <mxCell id="K9HX2_NeKCllVYPnepKJ-57" value="&lt;font face=&quot;Comic Sans MS&quot; style=&quot;font-size: 15px;&quot;&gt;Client&lt;/font&gt;" style="swimlane;childLayout=stackLayout;horizontal=1;startSize=30;horizontalStack=0;rounded=1;fontSize=14;fontStyle=0;strokeWidth=2;resizeParent=0;resizeLast=1;shadow=0;dashed=0;align=center;arcSize=4;whiteSpace=wrap;html=1;fillColor=#eeeeee;strokeColor=#808080;" parent="1" vertex="1">
          <mxGeometry x="436" y="363" width="138" height="136" as="geometry" />
        </mxCell>
        <mxCell id="K9HX2_NeKCllVYPnepKJ-58" value="&lt;div style=&quot;line-height: 160%;&quot;&gt;&lt;font&gt;ClientID (PK)&lt;/font&gt;&lt;div&gt;&lt;font&gt;FirstName&lt;/font&gt;&lt;/div&gt;&lt;div&gt;&lt;font&gt;LastName&lt;/font&gt;&lt;/div&gt;&lt;div&gt;&lt;font&gt;Phone&lt;/font&gt;&lt;/div&gt;&lt;div&gt;&lt;font&gt;Email&lt;/font&gt;&lt;/div&gt;&lt;/div&gt;" style="align=left;strokeColor=none;fillColor=none;spacingLeft=4;spacingRight=4;fontSize=12;verticalAlign=top;resizable=0;rotatable=0;part=1;html=1;whiteSpace=wrap;" parent="K9HX2_NeKCllVYPnepKJ-57" vertex="1">
          <mxGeometry y="30" width="138" height="106" as="geometry" />
        </mxCell>
        <mxCell id="K9HX2_NeKCllVYPnepKJ-67" value="" style="endArrow=none;html=1;rounded=0;entryX=0;entryY=0.433;entryDx=0;entryDy=0;entryPerimeter=0;endSize=3;strokeWidth=0.8;strokeColor=#4D4D4D;fillColor=#ffcc99;" parent="1" edge="1">
          <mxGeometry relative="1" as="geometry">
            <mxPoint x="627" y="69" as="sourcePoint" />
            <mxPoint x="812" y="69.19699999999989" as="targetPoint" />
          </mxGeometry>
        </mxCell>
        <mxCell id="K9HX2_NeKCllVYPnepKJ-68" value="" style="endArrow=none;html=1;rounded=0;entryX=-0.007;entryY=0.796;entryDx=0;entryDy=0;entryPerimeter=0;strokeWidth=0.8;strokeColor=#4D4D4D;" parent="1" edge="1">
          <mxGeometry relative="1" as="geometry">
            <mxPoint x="178" y="140" as="sourcePoint" />
            <mxPoint x="452.79600000000005" y="140.46400000000017" as="targetPoint" />
          </mxGeometry>
        </mxCell>
        <mxCell id="K9HX2_NeKCllVYPnepKJ-75" value="" style="edgeStyle=entityRelationEdgeStyle;fontSize=12;html=1;endArrow=none;endFill=1;rounded=0;entryX=0;entryY=0.5;entryDx=0;entryDy=0;startFill=0;strokeWidth=0.8;strokeColor=#4D4D4D;" parent="1" target="K9HX2_NeKCllVYPnepKJ-13" edge="1">
          <mxGeometry width="100" height="100" relative="1" as="geometry">
            <mxPoint x="180" y="103" as="sourcePoint" />
            <mxPoint x="192" y="-21" as="targetPoint" />
            <Array as="points">
              <mxPoint x="226" y="99" />
            </Array>
          </mxGeometry>
        </mxCell>
        <mxCell id="K9HX2_NeKCllVYPnepKJ-77" value="" style="endArrow=none;html=1;rounded=0;strokeWidth=0.8;strokeColor=#4D4D4D;" parent="1" edge="1">
          <mxGeometry relative="1" as="geometry">
            <mxPoint x="299" y="427" as="sourcePoint" />
            <mxPoint x="434" y="427" as="targetPoint" />
          </mxGeometry>
        </mxCell>
        <mxCell id="K9HX2_NeKCllVYPnepKJ-78" value="" style="fontSize=12;html=1;endArrow=none;endFill=1;startArrow=none;rounded=0;entryX=0.994;entryY=0.906;entryDx=0;entryDy=0;entryPerimeter=0;exitX=0.378;exitY=-0.004;exitDx=0;exitDy=0;exitPerimeter=0;startFill=0;strokeWidth=0.8;strokeColor=light-dark(#4D4D4D,#4D4D4D);" parent="1" source="K9HX2_NeKCllVYPnepKJ-25" target="K9HX2_NeKCllVYPnepKJ-31" edge="1">
          <mxGeometry width="100" height="100" relative="1" as="geometry">
            <mxPoint x="703" y="311" as="sourcePoint" />
            <mxPoint x="803" y="211" as="targetPoint" />
            <Array as="points">
              <mxPoint x="735" y="171" />
            </Array>
          </mxGeometry>
        </mxCell>
        <mxCell id="K9HX2_NeKCllVYPnepKJ-80" value="" style="edgeStyle=entityRelationEdgeStyle;fontSize=12;html=1;endArrow=none;startArrow=none;rounded=0;startFill=0;strokeWidth=0.8;" parent="1" edge="1">
          <mxGeometry width="100" height="100" relative="1" as="geometry">
            <mxPoint x="299" y="353" as="sourcePoint" />
            <mxPoint x="454" y="167" as="targetPoint" />
          </mxGeometry>
        </mxCell>
        <mxCell id="K9HX2_NeKCllVYPnepKJ-84" value="" style="endArrow=none;html=1;rounded=0;exitX=1;exitY=0.75;exitDx=0;exitDy=0;strokeWidth=0.8;strokeColor=#4D4D4D;" parent="1" source="K9HX2_NeKCllVYPnepKJ-20" edge="1">
          <mxGeometry relative="1" as="geometry">
            <mxPoint x="147" y="243" as="sourcePoint" />
            <mxPoint x="203" y="330" as="targetPoint" />
            <Array as="points">
              <mxPoint x="203" y="211" />
            </Array>
          </mxGeometry>
        </mxCell>
        <mxCell id="K9HX2_NeKCllVYPnepKJ-85" value="" style="endArrow=none;html=1;rounded=0;exitX=0.5;exitY=1;exitDx=0;exitDy=0;strokeWidth=0.8;strokeColor=#4D4D4D;" parent="1" source="K9HX2_NeKCllVYPnepKJ-20" edge="1">
          <mxGeometry relative="1" as="geometry">
            <mxPoint x="73" y="243" as="sourcePoint" />
            <mxPoint x="676" y="581" as="targetPoint" />
            <Array as="points">
              <mxPoint x="105" y="581" />
            </Array>
          </mxGeometry>
        </mxCell>
        <mxCell id="K9HX2_NeKCllVYPnepKJ-86" value="" style="endArrow=none;html=1;rounded=0;strokeWidth=0.8;strokeColor=#4D4D4D;" parent="1" edge="1">
          <mxGeometry relative="1" as="geometry">
            <mxPoint x="574" y="486.82" as="sourcePoint" />
            <mxPoint x="675" y="487" as="targetPoint" />
          </mxGeometry>
        </mxCell>
        <mxCell id="K9HX2_NeKCllVYPnepKJ-88" value="&lt;font&gt;&lt;b&gt;0 - *&lt;/b&gt;&lt;/font&gt;" style="text;html=1;align=center;verticalAlign=middle;whiteSpace=wrap;rounded=0;" parent="1" vertex="1">
          <mxGeometry x="621" y="72" width="48" height="22" as="geometry" />
        </mxCell>
        <mxCell id="K9HX2_NeKCllVYPnepKJ-89" value="&lt;font&gt;&lt;b&gt;1-1&lt;/b&gt;&lt;/font&gt;" style="text;html=1;align=center;verticalAlign=middle;whiteSpace=wrap;rounded=0;" parent="1" vertex="1">
          <mxGeometry x="773" y="70" width="48" height="22" as="geometry" />
        </mxCell>
        <mxCell id="K9HX2_NeKCllVYPnepKJ-90" value="&lt;font&gt;&lt;b&gt;0-1&lt;/b&gt;&lt;/font&gt;" style="text;html=1;align=center;verticalAlign=middle;whiteSpace=wrap;rounded=0;" parent="1" vertex="1">
          <mxGeometry x="694" y="446" width="48" height="22" as="geometry" />
        </mxCell>
        <mxCell id="K9HX2_NeKCllVYPnepKJ-91" value="&lt;font&gt;&lt;b&gt;0 - *&lt;/b&gt;&lt;/font&gt;" style="text;html=1;align=center;verticalAlign=middle;whiteSpace=wrap;rounded=0;" parent="1" vertex="1">
          <mxGeometry x="635" y="582" width="48" height="22" as="geometry" />
        </mxCell>
        <mxCell id="K9HX2_NeKCllVYPnepKJ-92" value="&lt;font&gt;&lt;b&gt;1-1&lt;/b&gt;&lt;/font&gt;" style="text;html=1;align=center;verticalAlign=middle;whiteSpace=wrap;rounded=0;" parent="1" vertex="1">
          <mxGeometry x="618" y="172" width="48" height="22" as="geometry" />
        </mxCell>
        <mxCell id="K9HX2_NeKCllVYPnepKJ-93" value="&lt;font&gt;&lt;b&gt;1-1&lt;/b&gt;&lt;/font&gt;" style="text;html=1;align=center;verticalAlign=middle;whiteSpace=wrap;rounded=0;" parent="1" vertex="1">
          <mxGeometry x="62" y="243" width="48" height="22" as="geometry" />
        </mxCell>
        <mxCell id="K9HX2_NeKCllVYPnepKJ-94" value="&lt;font&gt;&lt;b&gt;1-1&lt;/b&gt;&lt;/font&gt;" style="text;html=1;align=center;verticalAlign=middle;whiteSpace=wrap;rounded=0;" parent="1" vertex="1">
          <mxGeometry x="563" y="486" width="48" height="22" as="geometry" />
        </mxCell>
        <mxCell id="K9HX2_NeKCllVYPnepKJ-95" value="&lt;font&gt;&lt;b&gt;0 - *&lt;/b&gt;&lt;/font&gt;" style="text;html=1;align=center;verticalAlign=middle;whiteSpace=wrap;rounded=0;" parent="1" vertex="1">
          <mxGeometry x="639" y="486" width="48" height="22" as="geometry" />
        </mxCell>
        <mxCell id="K9HX2_NeKCllVYPnepKJ-96" value="&lt;font&gt;&lt;b&gt;0 - *&lt;/b&gt;&lt;/font&gt;" style="text;html=1;align=center;verticalAlign=middle;whiteSpace=wrap;rounded=0;" parent="1" vertex="1">
          <mxGeometry x="291" y="430" width="48" height="22" as="geometry" />
        </mxCell>
        <mxCell id="K9HX2_NeKCllVYPnepKJ-97" value="&lt;font&gt;&lt;b&gt;1-1&lt;/b&gt;&lt;/font&gt;" style="text;html=1;align=center;verticalAlign=middle;whiteSpace=wrap;rounded=0;" parent="1" vertex="1">
          <mxGeometry x="394" y="430" width="48" height="22" as="geometry" />
        </mxCell>
        <mxCell id="K9HX2_NeKCllVYPnepKJ-98" value="&lt;font&gt;&lt;b&gt;1-1&lt;/b&gt;&lt;/font&gt;" style="text;html=1;align=center;verticalAlign=middle;whiteSpace=wrap;rounded=0;" parent="1" vertex="1">
          <mxGeometry x="166" y="190" width="48" height="22" as="geometry" />
        </mxCell>
        <mxCell id="K9HX2_NeKCllVYPnepKJ-99" value="&lt;font&gt;&lt;b&gt;0 - *&lt;/b&gt;&lt;/font&gt;" style="text;html=1;align=center;verticalAlign=middle;whiteSpace=wrap;rounded=0;" parent="1" vertex="1">
          <mxGeometry x="201" y="311" width="48" height="22" as="geometry" />
        </mxCell>
        <mxCell id="K9HX2_NeKCllVYPnepKJ-100" value="&lt;font&gt;&lt;b&gt;0 - *&lt;/b&gt;&lt;/font&gt;" style="text;html=1;align=center;verticalAlign=middle;whiteSpace=wrap;rounded=0;" parent="1" vertex="1">
          <mxGeometry x="291" y="355" width="48" height="22" as="geometry" />
        </mxCell>
        <mxCell id="K9HX2_NeKCllVYPnepKJ-101" value="&lt;font&gt;&lt;b&gt;1-1&lt;/b&gt;&lt;/font&gt;" style="text;html=1;align=center;verticalAlign=middle;whiteSpace=wrap;rounded=0;" parent="1" vertex="1">
          <mxGeometry x="416" y="166" width="48" height="22" as="geometry" />
        </mxCell>
        <mxCell id="K9HX2_NeKCllVYPnepKJ-102" value="&lt;font&gt;&lt;b&gt;1-1&lt;/b&gt;&lt;/font&gt;" style="text;html=1;align=center;verticalAlign=middle;whiteSpace=wrap;rounded=0;" parent="1" vertex="1">
          <mxGeometry x="168" y="122" width="48" height="22" as="geometry" />
        </mxCell>
        <mxCell id="K9HX2_NeKCllVYPnepKJ-103" value="&lt;font&gt;&lt;b&gt;0 - *&lt;/b&gt;&lt;/font&gt;" style="text;html=1;align=center;verticalAlign=middle;whiteSpace=wrap;rounded=0;" parent="1" vertex="1">
          <mxGeometry x="414" y="117" width="48" height="22" as="geometry" />
        </mxCell>
        <mxCell id="K9HX2_NeKCllVYPnepKJ-104" value="&lt;font&gt;&lt;b&gt;1-1&lt;/b&gt;&lt;/font&gt;" style="text;html=1;align=center;verticalAlign=middle;whiteSpace=wrap;rounded=0;" parent="1" vertex="1">
          <mxGeometry x="216" y="-152" width="48" height="22" as="geometry" />
        </mxCell>
        <mxCell id="K9HX2_NeKCllVYPnepKJ-105" value="&lt;font&gt;&lt;b style=&quot;&quot;&gt;0 - *&lt;/b&gt;&lt;/font&gt;" style="text;html=1;align=center;verticalAlign=middle;whiteSpace=wrap;rounded=0;" parent="1" vertex="1">
          <mxGeometry x="172" y="81.5" width="48" height="22" as="geometry" />
        </mxCell>
      </root>
    </mxGraphModel>
  </diagram>
</mxfile>
